<?xml version="1.0" encoding="UTF-8" standalone="no"?>
<!-- Created with Inkscape (http://www.inkscape.org/) -->

<svg
   xmlns:dc="http://purl.org/dc/elements/1.1/"
   xmlns:cc="http://creativecommons.org/ns#"
   xmlns:rdf="http://www.w3.org/1999/02/22-rdf-syntax-ns#"
   xmlns:svg="http://www.w3.org/2000/svg"
   xmlns="http://www.w3.org/2000/svg"
   xmlns:sodipodi="http://sodipodi.sourceforge.net/DTD/sodipodi-0.dtd"
   xmlns:inkscape="http://www.inkscape.org/namespaces/inkscape"
   width="240mm"
   height="120mm"
   viewBox="0 0 240 120"
   version="1.1"
   id="svg8"
   inkscape:version="0.92.4 (unknown)"
   sodipodi:docname="planedof.svg">
  <defs
     id="defs2">
    <marker
       inkscape:isstock="true"
       style="overflow:visible;"
       id="marker1912"
       refX="0.0"
       refY="0.0"
       orient="auto"
       inkscape:stockid="Arrow1Lend">
      <path
         transform="scale(0.8) rotate(180) translate(12.5,0)"
         style="fill-rule:evenodd;stroke:#000000;stroke-width:1pt;stroke-opacity:1;fill:#000000;fill-opacity:1"
         d="M 0.0,0.0 L 5.0,-5.0 L -12.5,0.0 L 5.0,5.0 L 0.0,0.0 z "
         id="path1910" />
    </marker>
    <marker
       inkscape:stockid="Arrow1Lend"
       orient="auto"
       refY="0.0"
       refX="0.0"
       id="marker1876"
       style="overflow:visible;"
       inkscape:isstock="true">
      <path
         id="path1874"
         d="M 0.0,0.0 L 5.0,-5.0 L -12.5,0.0 L 5.0,5.0 L 0.0,0.0 z "
         style="fill-rule:evenodd;stroke:#000000;stroke-width:1pt;stroke-opacity:1;fill:#000000;fill-opacity:1"
         transform="scale(0.8) rotate(180) translate(12.5,0)" />
    </marker>
    <marker
       inkscape:stockid="Arrow1Lend"
       orient="auto"
       refY="0.0"
       refX="0.0"
       id="Arrow1Lend"
       style="overflow:visible;"
       inkscape:isstock="true"
       inkscape:collect="always">
      <path
         id="path1581"
         d="M 0.0,0.0 L 5.0,-5.0 L -12.5,0.0 L 5.0,5.0 L 0.0,0.0 z "
         style="fill-rule:evenodd;stroke:#000000;stroke-width:1pt;stroke-opacity:1;fill:#000000;fill-opacity:1"
         transform="scale(0.8) rotate(180) translate(12.5,0)" />
    </marker>
    <marker
       inkscape:stockid="Arrow1Mend"
       orient="auto"
       refY="0"
       refX="0"
       id="Arrow1Mend-9"
       style="overflow:visible"
       inkscape:isstock="true">
      <path
         inkscape:connector-curvature="0"
         id="path827-1"
         d="M 0,0 5,-5 -12.5,0 5,5 Z"
         style="fill:#000000;fill-opacity:1;fill-rule:evenodd;stroke:#000000;stroke-width:1.00000003pt;stroke-opacity:1"
         transform="matrix(-0.4,0,0,-0.4,-4,0)" />
    </marker>
    <marker
       inkscape:isstock="true"
       style="overflow:visible"
       id="marker11094"
       refX="0"
       refY="0"
       orient="auto"
       inkscape:stockid="Arrow1Mend">
      <path
         transform="matrix(-0.4,0,0,-0.4,-4,0)"
         style="fill:#000000;fill-opacity:1;fill-rule:evenodd;stroke:#000000;stroke-width:1.00000003pt;stroke-opacity:1"
         d="M 0,0 5,-5 -12.5,0 5,5 Z"
         id="path11092"
         inkscape:connector-curvature="0" />
    </marker>
    <marker
       inkscape:stockid="Arrow1Mend"
       orient="auto"
       refY="0"
       refX="0"
       id="Arrow1Mend"
       style="overflow:visible"
       inkscape:isstock="true">
      <path
         inkscape:connector-curvature="0"
         id="path827"
         d="M 0,0 5,-5 -12.5,0 5,5 Z"
         style="fill:#000000;fill-opacity:1;fill-rule:evenodd;stroke:#000000;stroke-width:1.00000003pt;stroke-opacity:1"
         transform="matrix(-0.4,0,0,-0.4,-4,0)" />
    </marker>
    <marker
       inkscape:stockid="Arrow1Lend"
       orient="auto"
       refY="0"
       refX="0"
       id="marker2278"
       style="overflow:visible"
       inkscape:isstock="true">
      <path
         inkscape:connector-curvature="0"
         id="path2276"
         d="M 0,0 5,-5 -12.5,0 5,5 Z"
         style="fill:#000000;fill-opacity:1;fill-rule:evenodd;stroke:#000000;stroke-width:1.00000003pt;stroke-opacity:1"
         transform="matrix(-0.8,0,0,-0.8,-10,0)" />
    </marker>
  </defs>
  <sodipodi:namedview
     id="base"
     pagecolor="#ffffff"
     bordercolor="#666666"
     borderopacity="1.0"
     inkscape:pageopacity="0.0"
     inkscape:pageshadow="2"
     inkscape:zoom="1.406257"
     inkscape:cx="439.0652"
     inkscape:cy="244.92303"
     inkscape:document-units="mm"
     inkscape:current-layer="layer1"
     showgrid="false"
     showborder="true"
     width="200mm"
     showguides="true"
     inkscape:guide-bbox="true"
     inkscape:window-width="1918"
     inkscape:window-height="1058"
     inkscape:window-x="0"
     inkscape:window-y="20"
     inkscape:window-maximized="0"
     inkscape:object-nodes="false"
     inkscape:object-paths="true"
     inkscape:snap-to-guides="true">
    <inkscape:grid
       type="xygrid"
       id="grid815"
       units="mm"
       spacingx="10"
       spacingy="10"
       empspacing="4"
       dotted="false" />
  </sodipodi:namedview>
  <metadata
     id="metadata5">
    <rdf:RDF>
      <cc:Work
         rdf:about="">
        <dc:format>image/svg+xml</dc:format>
        <dc:type
           rdf:resource="http://purl.org/dc/dcmitype/StillImage" />
        <dc:title />
      </cc:Work>
    </rdf:RDF>
  </metadata>
  <g
     inkscape:label="Layer 1"
     inkscape:groupmode="layer"
     id="layer1"
     transform="translate(0,-177)">
    <flowRoot
       xml:space="preserve"
       id="flowRoot2686"
       style="fill:black;stroke:none;stroke-opacity:1;stroke-width:1px;stroke-linejoin:miter;stroke-linecap:butt;fill-opacity:1;font-family:sans-serif;font-style:normal;font-weight:normal;font-size:40px;line-height:1.25;letter-spacing:0px;word-spacing:0px"><flowRegion
         id="flowRegion2688"><rect
           id="rect2690"
           width="60.842308"
           height="44.751778"
           x="298.17758"
           y="294.90076" /></flowRegion><flowPara
         id="flowPara2692"></flowPara></flowRoot>    <g
       id="g6067"
       transform="matrix(1.5452943,0,0,1.5452943,-63.247458,-130.18648)">
      <g
         id="g1574">
        <path
           style="fill:none;fill-rule:evenodd;stroke:#000000;stroke-width:0.26458332px;stroke-linecap:butt;stroke-linejoin:miter;stroke-opacity:1"
           d="m 109.58399,237.41613 h -0.12941 l -8.12561,-3.65711 -13.417248,-6.98497 c 0,0 -0.352777,-0.48212 0.58796,-1.23471 0.940737,-0.75259 2.575264,-1.30527 2.575264,-1.30527 0,0 0.493887,-0.36454 2.05786,0.4586 l 17.109694,6.49108 4.84414,1.90218 -0.75291,0.59522 -2.92735,4.21495 -0.57419,0.4484 c 0,0 -0.51913,-1.09888 -1.2482,-0.92837 z"
           id="path1505"
           inkscape:connector-curvature="0"
           sodipodi:nodetypes="ccccscccccccc" />
        <g
           id="g1531">
          <path
             inkscape:connector-curvature="0"
             id="path1507"
             d="m 119.29206,242.27634 2.39214,-0.0272 8.84292,0.87018 20.39046,2.58703 c 0,0 0.42921,0.1 0.68791,-0.32926 0.2587,-0.42921 2.96332,-2.19897 2.96332,-2.19897 0,0 0.44685,-0.37042 -0.52917,-0.49389"
             style="fill:none;fill-rule:evenodd;stroke:#000000;stroke-width:0.26458332px;stroke-linecap:butt;stroke-linejoin:miter;stroke-opacity:1" />
          <path
             inkscape:connector-curvature="0"
             id="path1509"
             d="m 154.03964,242.68423 -18.30319,-3.82172 -9.53122,-1.49776 -3.02106,1.14817 -3.52083,2.63003 -0.41881,0.68504 0.0431,0.39905 2.2077,0.0242"
             style="fill:none;fill-rule:evenodd;stroke:#000000;stroke-width:0.26458332px;stroke-linecap:butt;stroke-linejoin:miter;stroke-opacity:1"
             sodipodi:nodetypes="cccccccc" />
        </g>
        <g
           id="g1552">
          <g
             style="stroke:#000000;stroke-opacity:1"
             id="g1501">
            <path
               style="fill:none;fill-rule:evenodd;stroke:#000000;stroke-width:0.26458332px;stroke-linecap:butt;stroke-linejoin:miter;stroke-opacity:1"
               d="m 107.14722,246.00404 c 0,0 -0.64857,-1.20568 0.42407,-3.20128"
               id="path1475"
               inkscape:connector-curvature="0" />
            <path
               style="fill:none;fill-rule:evenodd;stroke:#000000;stroke-width:0.26458332px;stroke-linecap:butt;stroke-linejoin:miter;stroke-opacity:1"
               d="m 107.57129,242.80276 c 0,0 0.76498,-1.59648 1.65469,-2.36146"
               id="path1477"
               inkscape:connector-curvature="0" />
            <path
               style="fill:none;fill-rule:evenodd;stroke:#000000;stroke-width:0.26458332px;stroke-linecap:butt;stroke-linejoin:miter;stroke-opacity:1"
               d="m 109.20707,240.4577 3.01231,-3.40893 1.85425,-2.96845 c 0,0 0.36586,-0.58206 0.8315,-0.79825 0,0 1.33872,-1.57153 3.50893,-2.42798 0,0 2.3781,-1.27219 3.33432,-1.5549 l 8.63098,-3.30106 c 0,0 1.77642,-0.89976 1.96456,-1.62883 l 1.08185,-3.08679 0.73495,-2.24013 0.79374,-2.44591 -0.0118,-0.36454 -6.16183,-1.65805 c 0,0 -0.57032,-0.0941 -0.64675,-0.2881 -0.0764,-0.19402 0.17639,-0.488 0.17639,-0.488 l 1.48166,-1.05833 c 0,0 0.61735,-0.44685 1.49341,-0.42921 l 14.69905,3.89229 c 0,0 0.45273,0.0294 0.21167,0.65264"
               id="path1479"
               inkscape:connector-curvature="0" />
            <path
               style="fill:none;fill-rule:evenodd;stroke:#000000;stroke-width:0.26458332px;stroke-linecap:butt;stroke-linejoin:miter;stroke-opacity:1"
               d="m 146.19657,216.85436 c 0,0 -1.32322,2.03515 -2.93423,1.66474 l -4.9859,-1.34643 -0.0882,-0.0176 -0.58796,5.09761 -0.0941,0.52917 -0.13523,1.57573 c 0,0 -2.01924,1.9815 -2.91726,3.26201 l -4.83931,5.77058 -2.20348,2.73564 -1.20567,1.23894 c 0,0 -2.36909,0.50999 -3.0276,1.18026"
               id="path1481"
               inkscape:connector-curvature="0"
               sodipodi:nodetypes="ccccccccccc" />
            <path
               style="fill:none;fill-rule:evenodd;stroke:#000000;stroke-width:0.26458332px;stroke-linecap:butt;stroke-linejoin:miter;stroke-opacity:1"
               d="m 123.17763,238.54501 c 0,0 -4.29211,2.57527 -3.90406,3.52776 l 0.0235,0.25871 -7.83163,3.75118 c 0,0 -3.58237,0.92334 -4.31824,-0.0786"
               id="path1483"
               inkscape:connector-curvature="0" />
          </g>
        </g>
        <path
           style="fill:none;fill-rule:evenodd;stroke:#000000;stroke-width:0.26458332px;stroke-linecap:butt;stroke-linejoin:miter;stroke-opacity:1"
           d="m 114.68748,237.8865 3.70415,0.92897 0.16463,0.0235 0.79962,-0.3763 c 0,0 0.78787,-3.516 -0.8349,-4.30387 l -1.10536,-0.43506 c 0,0 -0.96426,0.87018 -2.72814,4.16276 z"
           id="path1513"
           inkscape:connector-curvature="0" />
        <g
           id="g1535">
          <path
             inkscape:connector-curvature="0"
             id="path1515"
             d="m 114.34646,237.74539 -1.84619,-0.61148 c 0,0 1.9873,-3.92757 3.21026,-3.72767"
             style="fill:none;fill-rule:evenodd;stroke:#000000;stroke-width:0.26458332px;stroke-linecap:butt;stroke-linejoin:miter;stroke-opacity:1" />
          <path
             inkscape:connector-curvature="0"
             id="path1517"
             d="m 115.67141,233.40127 c 0,0 1.13565,-0.0411 1.35615,0.2284 l -2.6811,4.11572"
             style="fill:none;fill-rule:evenodd;stroke:#000000;stroke-width:0.26458332px;stroke-linecap:butt;stroke-linejoin:miter;stroke-opacity:1" />
        </g>
        <g
           id="g1539">
          <path
             inkscape:connector-curvature="0"
             id="path1521"
             d="m 120.03549,237.61419 c 0.008,-0.0499 0.0582,-2.51944 0.0582,-2.51944 l 2.26169,-1.25557 c 0,0 0.44901,-0.14967 0.46564,0.4407"
             style="fill:none;fill-rule:evenodd;stroke:#000000;stroke-width:0.26458332px;stroke-linecap:butt;stroke-linejoin:miter;stroke-opacity:1" />
          <path
             inkscape:connector-curvature="0"
             id="path1523"
             d="m 122.82102,234.27988 c 0,0 0.32428,1.31377 0.0333,1.64637 l -2.56106,1.80436 c 0,0 -0.2661,0.22312 -0.2556,-0.15822"
             style="fill:none;fill-rule:evenodd;stroke:#000000;stroke-width:0.26458332px;stroke-linecap:butt;stroke-linejoin:miter;stroke-opacity:1" />
        </g>
        <path
           style="fill:none;fill-rule:evenodd;stroke:#000000;stroke-width:0.26458332px;stroke-linecap:butt;stroke-linejoin:miter;stroke-opacity:1"
           d="m 123.50285,235.47724 c -0.0166,-0.0333 -0.24945,-1.72121 -0.24945,-1.72121 0,0 -0.0748,-0.36586 0.1663,-0.49059 0.24113,-0.12472 1.44681,-0.69014 1.44681,-0.69014 0,0 0.3326,-0.22451 0.38249,0.19124 0.0499,0.41575 0.19125,1.29714 0.19125,1.29714 0,0 0.0416,0.16631 -0.14136,0.35755 -0.18293,0.19125 -1.53828,1.11421 -1.53828,1.11421 0,0 -0.18293,0.13304 -0.26608,-0.0333"
           id="path1525"
           inkscape:connector-curvature="0" />
        <path
           style="fill:none;fill-rule:evenodd;stroke:#000000;stroke-width:0.26458332px;stroke-linecap:butt;stroke-linejoin:miter;stroke-opacity:1"
           d="m 126.06451,233.62379 c -0.0177,-0.13523 -0.19403,-1.34055 -0.20579,-1.36407 -0.0118,-0.0235 -0.0294,-0.0764 0.18815,-0.15875 0.21754,-0.0823 0.8349,-0.34102 0.8349,-0.34102 0,0 0.27046,-0.13523 0.2881,0.16463 0.0177,0.29986 0.006,0.55269 0.006,0.55269 z"
           id="path1527"
           inkscape:connector-curvature="0" />
      </g>
      <path
         sodipodi:nodetypes="cc"
         inkscape:connector-curvature="0"
         id="path1576"
         d="m 110.19841,244.44226 c -0.3763,0.18814 -17.535912,11.44758 -17.535912,11.44758"
         style="fill:none;fill-rule:evenodd;stroke:#000000;stroke-width:0.26499999;stroke-linecap:butt;stroke-linejoin:miter;stroke-miterlimit:4;stroke-dasharray:none;stroke-opacity:1;marker-end:url(#Arrow1Lend)" />
      <path
         sodipodi:nodetypes="cc"
         inkscape:connector-curvature="0"
         id="path1872"
         d="m 110.19059,244.31585 v 16.96287"
         style="fill:none;fill-rule:evenodd;stroke:#000000;stroke-width:0.26458332px;stroke-linecap:butt;stroke-linejoin:miter;stroke-opacity:1;marker-end:url(#marker1876)" />
      <path
         sodipodi:nodetypes="cc"
         inkscape:connector-curvature="0"
         id="path1902"
         d="M 110.13767,244.43772 89.325117,236.01235"
         style="fill:none;fill-rule:evenodd;stroke:#000000;stroke-width:0.26458332px;stroke-linecap:butt;stroke-linejoin:miter;stroke-opacity:1;marker-end:url(#marker1912)" />
      <text
         id="text2684"
         y="265.24335"
         x="105.0295"
         style="font-style:normal;font-weight:normal;font-size:10.58333302px;line-height:1.25;font-family:sans-serif;letter-spacing:0px;word-spacing:0px;fill:#000000;fill-opacity:1;stroke:none;stroke-width:0.26458332px;stroke-linecap:butt;stroke-linejoin:miter;stroke-opacity:1"
         xml:space="preserve"><tspan
           style="font-size:4.93888903px;stroke-width:0.26458332px"
           y="265.24335"
           x="105.0295"
           id="tspan2682"
           sodipodi:role="line">Yaw</tspan></text>
      <text
         id="text2696"
         y="259.53583"
         x="83.035149"
         style="font-style:normal;font-weight:normal;font-size:10.58333302px;line-height:1.25;font-family:sans-serif;letter-spacing:0px;word-spacing:0px;fill:#000000;fill-opacity:1;stroke:none;stroke-width:0.26458332px;stroke-linecap:butt;stroke-linejoin:miter;stroke-opacity:1"
         xml:space="preserve"><tspan
           style="font-size:4.93888903px;stroke-width:0.26458332px"
           y="259.53583"
           x="83.035149"
           id="tspan2694"
           sodipodi:role="line">Roll</tspan></text>
      <text
         id="text2700"
         y="235.51483"
         x="76.687271"
         style="font-style:normal;font-weight:normal;font-size:10.58333302px;line-height:1.25;font-family:sans-serif;letter-spacing:0px;word-spacing:0px;fill:#000000;fill-opacity:1;stroke:none;stroke-width:0.26458332px;stroke-linecap:butt;stroke-linejoin:miter;stroke-opacity:1"
         xml:space="preserve"><tspan
           style="font-size:4.93888903px;stroke-width:0.26458332px"
           y="235.51483"
           x="76.687271"
           id="tspan2698"
           sodipodi:role="line">Pitch</tspan></text>
      <path
         sodipodi:nodetypes="cc"
         inkscape:connector-curvature="0"
         id="path2965"
         d="m 112.44166,252.95353 c -0.17442,1.87494 -5.84109,1.80688 -2.96771,-0.9065"
         style="fill:none;fill-rule:evenodd;stroke:#000000;stroke-width:0.2;stroke-linecap:butt;stroke-linejoin:miter;stroke-miterlimit:4;stroke-dasharray:none;stroke-opacity:1;marker-end:url(#Arrow1Mend)" />
      <path
         style="fill:none;fill-rule:evenodd;stroke:#000000;stroke-width:0.2;stroke-linecap:butt;stroke-linejoin:miter;stroke-miterlimit:4;stroke-dasharray:none;stroke-opacity:1;marker-end:url(#marker11094)"
         d="m 96.178477,239.6507 c -1.138665,1.11059 -5.100251,-3.03791 0.183766,-2.1177"
         id="path11090"
         inkscape:connector-curvature="0"
         sodipodi:nodetypes="cc" />
      <path
         sodipodi:nodetypes="cc"
         inkscape:connector-curvature="0"
         id="path2965-4"
         d="m 100.39925,252.5451 c -0.17441,-1.87494 -5.841083,-1.80688 -2.967703,0.9065"
         style="fill:none;fill-rule:evenodd;stroke:#000000;stroke-width:0.2;stroke-linecap:butt;stroke-linejoin:miter;stroke-miterlimit:4;stroke-dasharray:none;stroke-opacity:1;marker-end:url(#Arrow1Mend-9)" />
    </g>
  </g>
</svg>
